{"title":"Mauro Bolognini - La notte brava (1959)","uid":5596924,"size":1558028215,"categoryP":"video","categoryS":"movies","magnet":"?xt=urn:btih:3b78ade4090b2d4278c4ddec4d4ddbe0edd82961&amp;dn=Mauro+Bolognini+-+La+notte+brava+%281959%29&amp;tr=udp%3A%2F%2Ftracker.openbittorrent.com%3A80&amp;tr=udp%3A%2F%2Fopen.demonii.com%3A1337&amp;tr=udp%3A%2F%2Ftracker.coppersurfer.tk%3A6969&amp;tr=udp%3A%2F%2Fexodus.desync.com%3A6969","seeders":2,"leechers":1,"uploader":"mfccorrea","files":5,"time":1275065578,"description":"The exploits of three young Roman criminals are chronicled in this socially conscious drama. The young men commit petty crimes all day begin with arms theft, and culminating with a night with three streetwalkers. After their pleasure, the boys try to cheat the hookers, but they ladies are smarter than that and have stolen their cash ahead of time. The punks then return to the city for more crimes. Exploits include the harassment of three homosexuals, and attempts to seduce some women. \n\n   General\n      Complete name : La Notte Brava.avi\n      Format : AVI\n      Format/Info : Audio Video Interleave\n      File size : 1.45 GiB\n      Duration : 1h 31mn\n      Overall bit rate : 2 282 Kbps\n      Writing application : VirtualDubMod 1.5.10.2 (build 2540/release)\n      Writing library : VirtualDubMod build 2540/release\n   Video #0\n      ID : 0\n      Format : MPEG-4 Visual\n      Format profile : AdvancedSimple@L5\n      Format settings, BVOP : Yes\n      Format settings, QPel : No\n      Format settings, GMC : No warppoints\n      Format settings, Matrix : Default (MPEG)\n      Codec ID : XVID\n      Codec ID/Hint : XviD\n      Duration : 1h 31mn\n      Bit rate : 2 083 Kbps\n      Width : 720 pixels\n      Height : 400 pixels\n      Display aspect ratio : 16:9\n      Frame rate : 25.000 fps\n      Resolution : 24 bits\n      Colorimetry : 4:2:0\n      Scan type : Progressive\n      Bits/(Pixel*Frame) : 0.289\n      Stream size : 1.32 GiB (91%)\n      Writing library : XviD 1.1.2 (UTC 2006-11-01)\n   Audio #1\n      ID : 1\n      Format : AC-3\n      Format/Info : Audio Coding 3\n      Format profile : Dolby Digital\n      Codec ID : 2000\n      Duration : 1h 31mn\n      Bit rate mode : Constant\n      Bit rate : 192 Kbps\n      Channel(s) : 2 channels\n      Channel positions : L R\n      Sampling rate : 48.0 KHz\n      Stream size : 125 MiB (8%)\n      Alignment : Split accross interleaves\n      Interleave, duration : 96 ms (2.40 video frames)\n      Interleave, preload duration : 96 ms\n &lt;a href=&quot;\nhttp://www.imdb.com/title/tt0051469/&quot; rel=&quot;nofollow&quot; target=&quot;_NEW&quot;&gt;\nhttp://www.imdb.com/title/tt0051469/&lt;/a&gt;\n\nItalian audio; Italian, English, Spanish and Portuguese subtitles\n\nPosted originally at KG by rulle.\n\nMauro Bolognini - La notte brava (1959)","torrent":{"xt":"urn:btih:3b78ade4090b2d4278c4ddec4d4ddbe0edd82961","amp;dn":"Mauro+Bolognini+-+La+notte+brava+%281959%29","amp;tr":["udp%3A%2F%2Ftracker.openbittorrent.com%3A80","udp%3A%2F%2Fopen.demonii.com%3A1337","udp%3A%2F%2Ftracker.coppersurfer.tk%3A6969","udp%3A%2F%2Fexodus.desync.com%3A6969"],"infoHash":"3b78ade4090b2d4278c4ddec4d4ddbe0edd82961","infoHashBuffer":{"type":"Buffer","data":[59,120,173,228,9,11,45,66,120,196,221,236,77,77,219,224,237,216,41,97]},"announce":[],"urlList":[]}}